<svg id="Capa_1" enable-background="new 0 0 512 512" height="512" viewBox="0 0 512 512" width="512" xmlns="http://www.w3.org/2000/svg"><g><path d="m136 0c-8.284 0-15 6.716-15 15v482c0 5.199 2.692 10.027 7.114 12.76 4.423 2.733 9.945 2.981 14.594.657l113.292-56.646 113.292 56.646c4.668 2.334 10.191 2.065 14.594-.657 4.423-2.733 7.114-7.561 7.114-12.76v-482c0-8.284-6.716-15-15-15zm15 181h210v120h-210zm210-151v121h-210v-121zm-98.292 393.583c-2.111-1.056-4.41-1.583-6.708-1.583s-4.597.528-6.708 1.583l-98.292 49.146v-141.729h210v141.729z"/></g></svg>