<?xml version="1.0" standalone="no"?>
<!DOCTYPE svg PUBLIC "-//W3C//DTD SVG 20010904//EN"
 "http://www.w3.org/TR/2001/REC-SVG-20010904/DTD/svg10.dtd">
<svg version="1.0" xmlns="http://www.w3.org/2000/svg"
 width="293.000000pt" height="68.000000pt" viewBox="0 0 293.000000 68.000000"
 preserveAspectRatio="xMidYMid meet">

<g transform="translate(0.000000,68.000000) scale(0.100000,-0.100000)"
fill="#000000" stroke="none">
<path d="M1672 421 c-32 -27 -27 -43 32 -99 59 -56 69 -73 60 -107 -11 -44
-122 -45 -141 -2 -8 16 -7 26 3 35 33 31 -6 39 -43 10 -17 -14 -10 -50 11 -58
10 -3 16 -10 14 -15 -6 -18 140 -18 174 0 17 8 36 15 43 15 6 0 17 12 24 26 9
21 8 31 -6 55 -10 16 -21 29 -26 29 -5 0 -25 14 -44 30 -18 17 -38 30 -42 30
-15 0 -31 58 -18 64 7 2 5 5 -4 5 -9 1 -26 -7 -37 -18z"/>
<path d="M1830 411 c0 -17 5 -31 11 -31 6 0 8 7 5 16 -6 15 -4 15 10 3 14 -11
16 -10 12 11 -1 14 -11 26 -20 28 -14 3 -18 -3 -18 -27z"/>
<path d="M1972 417 c-5 -7 -12 -25 -16 -42 -4 -16 -19 -54 -32 -84 -14 -30
-28 -67 -31 -82 -5 -27 -4 -29 29 -29 28 0 37 5 46 25 7 14 12 32 12 38 0 7 9
31 21 52 12 22 22 49 24 60 2 11 6 32 10 46 6 24 4 26 -24 27 -16 0 -34 -5
-39 -11z"/>
<path d="M2555 362 c-6 -4 -16 -19 -24 -34 -8 -16 -17 -28 -21 -28 -4 0 -5
-11 -2 -25 2 -14 -3 -36 -12 -50 -9 -13 -16 -31 -16 -39 0 -7 -7 -27 -15 -42
-8 -16 -15 -37 -15 -47 0 -16 5 -17 32 -11 38 8 60 31 54 57 -2 9 -1 15 4 12
4 -3 10 2 14 10 3 8 18 15 32 15 15 0 24 3 20 8 -8 7 -12 8 -40 11 -11 1 -10
9 5 38 11 21 17 43 14 50 -2 7 0 13 5 13 6 0 10 5 10 11 0 7 8 18 18 25 15 12
15 15 2 24 -18 11 -51 13 -65 2z"/>
<path d="M2060 350 c-13 -8 -12 -10 3 -10 16 0 18 -7 16 -47 -2 -27 -7 -56
-13 -65 -17 -28 8 -45 68 -47 30 -1 57 3 61 9 5 8 -36 15 -66 12 -4 -1 -2 15
3 36 21 81 21 95 2 109 -21 15 -53 17 -74 3z"/>
<path d="M2303 340 c-24 -10 -43 -24 -43 -30 0 -6 -4 -9 -9 -6 -10 6 -33 -42
-26 -54 3 -5 1 -11 -5 -15 -20 -12 -10 -33 21 -44 75 -26 161 -5 192 48 20 35
23 76 5 65 -10 -5 -10 -4 -1 6 10 11 8 17 -9 32 -27 23 -72 23 -125 -2z m98
-45 c-1 -27 -7 -55 -12 -61 -5 -6 -5 -15 -1 -19 4 -5 1 -5 -5 -1 -7 4 -13 3
-13 -2 0 -14 -45 -21 -64 -10 -22 12 -20 51 4 98 20 38 37 49 75 47 18 -2 20
-8 16 -52z"/>
<path d="M2660 350 c0 -6 7 -13 15 -17 12 -4 15 -18 13 -53 -2 -27 -6 -46 -10
-44 -4 3 -13 -4 -20 -16 -7 -11 -18 -20 -25 -20 -7 0 -13 -4 -13 -10 0 -13 26
-13 67 2 21 8 32 17 28 26 -2 7 -1 11 4 8 13 -9 28 15 36 55 6 30 3 40 -16 58
-23 22 -79 29 -79 11z"/>
</g>
</svg>
